<svg id="Layer_1" data-name="Layer 1" xmlns="http://www.w3.org/2000/svg" xmlns:xlink="http://www.w3.org/1999/xlink" viewBox="0 0 185.96 188.38"><defs><style>.cls-1{fill:none;}.cls-2{fill:#f26869;}.cls-3{clip-path:url(#clip-path);}.cls-4{fill:#3a3b3a;}.cls-5{fill:#555554;}.cls-6{fill:#272626;}.cls-7{fill:#454545;}.cls-8{fill:#fff;}.cls-9{fill:#fbd7db;}</style><clipPath id="clip-path" transform="translate(-232.02 -32)"><path id="SVGID" class="cls-1" d="M418,125a93,93,0,1,1-93-93A93,93,0,0,1,418,125Z"/></clipPath></defs><title>logo</title><circle class="cls-2" cx="92.98" cy="92.98" r="92.98"/><g class="cls-3"><path class="cls-4" d="M266.8,206l51.63-77.3,7.45-4.71,16.74-29L359.1,211.86S307.54,234.47,266.8,206Z" transform="translate(-232.02 -32)"/><path class="cls-5" d="M280.21,185.92,289.76,166l4.05-23.8-4-16.29-46.93,42.79c8.86,14.7,13,21.12,28.48,32.3Z" transform="translate(-232.02 -32)"/><path class="cls-6" d="M342.61,95l4.27,37.06-7.6,2.76-3.07,20.12,16.06,8.52-6.38,3.76,3.07.31L334.27,200l5.94,18c25.14-3.91,47.91-21.51,60.45-38.91l-6.19-6.56L392,166.39l-38.45-55.21-3.22-.27Z" transform="translate(-232.02 -32)"/><polygon class="cls-7" points="57.74 93.89 61.79 110.18 54.05 117.08 53.05 132.6 54.59 134.13 50.95 136.6 45.85 157.92 77.66 109.81 65.84 104.29 57.74 93.89"/></g><path class="cls-8" d="M289.76,97.07a8.1,8.1,0,0,0-8.1,8.1c0,2,.77,3.34,1.88,5.39.46.84,6,9.18,6.22,9.65.26-.46,5.77-8.81,6.22-9.65,1.11-2,1.88-3.41,1.88-5.39A8.1,8.1,0,0,0,289.76,97.07Z" transform="translate(-232.02 -32)"/><path class="cls-9" d="M289.76,97.07v23.14c.26-.46,5.77-8.81,6.22-9.65,1.11-2,1.88-3.41,1.88-5.39A8.1,8.1,0,0,0,289.76,97.07Z" transform="translate(-232.02 -32)"/></svg>